# xmcd CD database file
#
# Track frame offsets:
#	150
#	19789
#	33462
#	52958
#	75298
#	98383
#	114692
#	155075
#	170540
#	192256
#	204914
#	218030
#	232856
#	246559
#	263621
#
# Disc length: 3783 seconds
#
# Revision: 3
# Processed by: cddbd v1.5.2PL0 Copyright (c) Steve Scherf et al.
# Submitted via: CDex 1.51
#
DISCID=b90ec50f
DTITLE=Various Artist - STTW-LD-11
DYEAR=1900
DGENRE=Blues
TTITLE0=Judds The - Love Can Build A Bridge
TTITLE1=Dusty Springfield - Piece Of My Heart (take a little)
TTITLE2=ABC - All Of My Heart
TTITLE3=Big Mountain - Baby I Love Your Way
TTITLE4=Culture Club - Victims
TTITLE5=Gloria Gaynor - Never Can Say Goodbye
TTITLE6=Meatloaf - For Crying Out Loud (full length version)
TTITLE7=Sam Cooke - A Change Is Gonna Come
TTITLE8=Eurythmics The - The Miracle Of Love
TTITLE9=Green Day - Time Of Your Life (good riddance)
TTITLE10=Ordinary Boys The - Boys Will Be Boys
TTITLE11=Cure The - Boys Don't Cry (unplugged version)
TTITLE12=Deacon Blue - I'll Never Fall In Love Again
TTITLE13=Richard Marx - Now And Forever
TTITLE14=Lionel Richie - Running With The Night
EXTD=
EXTT0=
EXTT1=
EXTT2=
EXTT3=
EXTT4=
EXTT5=
EXTT6=
EXTT7=
EXTT8=
EXTT9=
EXTT10=
EXTT11=
EXTT12=
EXTT13=
EXTT14=
PLAYORDER=
